<svg aria-hidden="true" style="width:0;height:0;position:absolute;overflow:hidden" xmlns="http://www.w3.org/2000/svg"><defs><symbol id="heart" viewBox="0 0 32 32"><path stroke-linejoin="round" stroke-linecap="round" stroke-width="2" d="M9.337 4.001c-3.683 0-6.67 2.955-6.67 6.602 0 2.943 1.168 9.93 12.656 16.992a1.31 1.31 0 0 0 1.37-.003l-.006.003c11.488-7.063 12.656-14.049 12.656-16.992 0-3.647-2.987-6.602-6.67-6.602-3.681 0-6.668 4.001-6.668 4.001s-2.987-4.001-6.668-4.001z"/></symbol><symbol id="heart-filled" viewBox="0 0 32 32"><path d="M9.337 4.001c-3.683 0-6.67 2.955-6.67 6.602 0 2.943 1.168 9.93 12.656 16.992.194.12.43.191.682.191s.488-.071.688-.195l-.006.003c11.488-7.063 12.656-14.049 12.656-16.992 0-3.647-2.987-6.602-6.67-6.602-3.681 0-6.668 4.001-6.668 4.001S13.018 4 9.337 4z"/></symbol><symbol id="book-icon" viewBox="0 0 32 32"><path stroke-linejoin="round" stroke-linecap="round" stroke-width="1.778" d="M2.667 4.001h8.001a5.334 5.334 0 0 1 5.334 5.334v18.67a4.001 4.001 0 0 0-4.001-4.001H2.666V4.001zm26.671 0h-8.001a5.334 5.334 0 0 0-5.334 5.334v18.67a4.001 4.001 0 0 1 4.001-4.001h9.335V4.001z"/></symbol><symbol id="search" viewBox="0 0 34 32"><path d="M14.035 24.007c2.493 0 4.911-.792 6.873-2.25l6.171 5.861 1.984-1.886-6.171-5.861a10.21 10.21 0 0 0 2.371-6.528v-.002c0-5.881-5.036-10.668-11.229-10.668-6.191 0-11.227 4.787-11.227 10.668s5.036 10.666 11.227 10.666zm0-18.666c4.645 0 8.421 3.587 8.421 8s-3.776 8-8.421 8c-4.643 0-8.421-3.587-8.421-8s3.778-8 8.421-8z"/></symbol><symbol id="ellipse" viewBox="0 0 32 32"><path fill="#4b48db" d="M32.011 16.006c0 8.84-7.166 16.006-16.006 16.006S-.001 24.846-.001 16.006 7.165 0 16.005 0s16.006 7.166 16.006 16.006z"/></symbol><symbol id="arrow-down" viewBox="0 0 32 32"><path d="M3.762 9.148 0 12.629l16.01 14.816 16.01-14.816-3.762-3.481-12.247 11.31L3.764 9.148z"/></symbol><symbol id="arrow-up" viewBox="0 0 32 32"><path d="M3.762 25.158 0 21.677 16.01 6.861l16.01 14.816-3.762 3.481-12.247-11.31-12.247 11.31z"/></symbol><symbol id="calendar" viewBox="0 0 32 32"><path d="M22.667 4H28c.736 0 1.333.597 1.333 1.333v21.334c0 .736-.597 1.333-1.333 1.333H4a1.333 1.333 0 0 1-1.333-1.333V5.333C2.667 4.597 3.264 4 4 4h5.333V1.333H12V4h8V1.333h2.667V4zm4 10.667H5.333v10.666h21.334V14.667zm-6.667-8h-8v2.666H9.333V6.667h-4V12h21.334V6.667h-4v2.666H20V6.667zM8 17.333h2.667V20H8v-2.667zm6.667 0h2.666V20h-2.666v-2.667zm6.666 0H24V20h-2.667v-2.667z"/></symbol><symbol id="moon" viewBox="0 0 32 32"><path d="M24.821 23.268q-.964.161-1.964.161-3.25 0-6.018-1.607t-4.375-4.375-1.607-6.018q0-3.429 1.857-6.375-3.589 1.071-5.866 4.089T4.571 16q0 2.321.911 4.438t2.438 3.643 3.643 2.438 4.438.911q2.571 0 4.884-1.098t3.938-3.063zm3.625-1.518q-1.679 3.625-5.063 5.795t-7.384 2.17q-2.786 0-5.321-1.089t-4.375-2.929-2.929-4.375-1.089-5.321q0-2.732 1.027-5.223t2.786-4.313 4.205-2.938 5.179-1.223q.786-.036 1.089.696.321.732-.268 1.286-1.536 1.393-2.348 3.241t-.813 3.902q0 2.643 1.304 4.875t3.536 3.536 4.875 1.304q2.107 0 4.071-.911.732-.321 1.286.232.25.25.313.607t-.08.679z"/></symbol><symbol id="sun" viewBox="0 0 32 32"><path d="M16 9c-3.859 0-7 3.141-7 7s3.141 7 7 7 7-3.141 7-7-3.141-7-7-7zm0 12c-2.762 0-5-2.238-5-5s2.238-5 5-5 5 2.238 5 5-2.238 5-5 5zm0-14a1 1 0 0 0 1-1V4a1 1 0 0 0-2 0v2a1 1 0 0 0 1 1zm0 18a1 1 0 0 0-1 1v2a1 1 0 0 0 2 0v-2a1 1 0 0 0-1-1zm7.777-15.365 1.414-1.414a.999.999 0 1 0-1.414-1.414l-1.414 1.414a.999.999 0 1 0 1.414 1.414zM8.223 22.365l-1.414 1.414a.999.999 0 1 0 1.414 1.414l1.414-1.414a.999.999 0 1 0-1.414-1.414zM7 16a1 1 0 0 0-1-1H4a1 1 0 0 0 0 2h2a1 1 0 0 0 1-1zm21-1h-2a1 1 0 0 0 0 2h2a1 1 0 0 0 0-2zM8.221 9.635a.999.999 0 1 0 1.414-1.414L8.221 6.807a.999.999 0 1 0-1.414 1.414l1.414 1.414zm15.558 12.728a.999.999 0 1 0-1.414 1.414l1.414 1.414a.999.999 0 1 0 1.414-1.414l-1.414-1.414z"/></symbol><symbol id="toggle" viewBox="0 0 61 32"><path d="M15.238 1.226h30.475c8.162 0 14.778 6.616 14.778 14.778v-.002c0 8.162-6.616 14.778-14.778 14.778H15.238C7.076 30.78.46 24.164.46 16.002v.002c0-8.162 6.616-14.778 14.778-14.778z"/><path style="fill:var(--color4,#4b48db)" d="M25.905 16.004c0 6.733-5.458 12.19-12.19 12.19s-12.19-5.458-12.19-12.19c0-6.733 5.458-12.19 12.19-12.19s12.19 5.458 12.19 12.19z"/><path stroke-width=".922" d="M15.238 1.226h30.475c8.162 0 14.778 6.616 14.778 14.778v-.002c0 8.162-6.616 14.778-14.778 14.778H15.238C7.076 30.78.46 24.164.46 16.002v.002c0-8.162 6.616-14.778 14.778-14.778z"/></symbol><symbol id="favourite-icon" viewBox="0 0 36 32"><path fill="none" stroke="#f4f4f4" style="stroke:var(--color1,#f4f4f4)" stroke-linejoin="round" stroke-linecap="round" stroke-width="2" d="M31.261 4.915a8.244 8.244 0 0 0-5.835-2.417 8.264 8.264 0 0 0-5.835 2.417l-1.59 1.59-1.59-1.59a8.25 8.25 0 0 0-11.67 0 8.25 8.25 0 0 0 0 11.67l13.26 13.26 13.26-13.26a8.26 8.26 0 0 0 2.417-5.835 8.245 8.245 0 0 0-2.417-5.835v0z"/></symbol><symbol id="home-icon" viewBox="0 0 32 32"><path fill="none" stroke="#f4f4f4" style="stroke:var(--color1,#f4f4f4)" stroke-linejoin="round" stroke-linecap="round" stroke-width="1.778" d="m4 12 12-9.333L28 12v14.667a2.668 2.668 0 0 1-2.667 2.667H6.666a2.668 2.668 0 0 1-2.667-2.667V12z"/><path fill="none" stroke="#f4f4f4" style="stroke:var(--color1,#f4f4f4)" stroke-linejoin="round" stroke-linecap="round" stroke-width="1.778" d="M12 29.333V16h8v13.333"/></symbol><symbol id="vector" viewBox="0 0 29 32"><path d="M22.203 10.415c.292-.099.628-.156.977-.156.516 0 1.003.124 1.433.345l-.018-.008a3.157 3.157 0 0 1 1.548 1.805l.006.022 1.937 5.954c.296.868.466 1.867.466 2.907 0 1.555-.382 3.02-1.057 4.308l.024-.051a9.733 9.733 0 0 1-2.206 2.822l-.011.009a9.269 9.269 0 0 1-3.177 1.825l-.066.019a10.454 10.454 0 0 1-3.383.551c-.369 0-.734-.019-1.094-.055l.045.004a12.291 12.291 0 0 1-4.361-1.312l.068.032-9.7-4.936a3.292 3.292 0 0 1-1.605-1.869l-.007-.023a3.046 3.046 0 0 1-.143-1.305l-.001.013c.043-.426.159-.829.344-1.211.185-.378.44-.703.765-.968.324-.264.7-.48 1.127-.64a3.069 3.069 0 0 1 1.01-.167c.54 0 1.048.136 1.492.377l-.017-.008 2.194 1.103-1.698-5.21a7.24 7.24 0 0 1-2.043-.569l.046.018a7.134 7.134 0 0 1-1.73-1.077l.011.009a8.032 8.032 0 0 1-1.365-1.481l-.017-.024a6.435 6.435 0 0 1-.903-1.817l-.012-.046a6.928 6.928 0 0 1-.363-2.236c0-.224.01-.446.031-.665l-.002.028c.092-1 .365-1.916.785-2.745l-.02.043a7.094 7.094 0 0 1 1.712-2.198l.009-.008A7.485 7.485 0 0 1 5.716.413l.053-.015A6.934 6.934 0 0 1 8.006.035c.225 0 .447.01.666.031L8.644.064c1 .092 1.916.365 2.745.785l-.043-.02a7.077 7.077 0 0 1 2.196 1.709l.008.009a7.502 7.502 0 0 1 1.426 2.537 7.15 7.15 0 0 1 .357 2.258 7.273 7.273 0 0 1-.928 3.566l.019-.037c.391-.025.768.024 1.127.148.362.122.701.309 1.023.558a3.161 3.161 0 0 1 2.91-.971l-.02-.003c.522.093.988.319 1.403.675a3.142 3.142 0 0 1 1.332-.863zM3.07 8.958a5.167 5.167 0 0 0 1.25 2.046 5.16 5.16 0 0 0 1.993 1.268l.036.011-1.293-3.97a3.074 3.074 0 0 1-.156-.977c0-.516.124-1.003.345-1.433l-.008.018a3.148 3.148 0 0 1 4.237-1.364l-.018-.008a3.156 3.156 0 0 1 1.548 1.803l.006.022 1.293 3.97a5.1 5.1 0 0 0 .883-2.198l.003-.028a5.13 5.13 0 0 0-.205-2.426l.011.036a5.13 5.13 0 0 0-2.564-3.001l-.029-.013a5.556 5.556 0 0 0-1.904-.554l-.025-.002a4.914 4.914 0 0 0-2.054.223 5.056 5.056 0 0 0-1.796 1.016A5.287 5.287 0 0 0 2.836 6.89l-.002.021a5.038 5.038 0 0 0 .237 2.048zm21.095 4.111a1.007 1.007 0 0 0-.517-.598l-.006-.003a.993.993 0 0 0-.8-.066l.007-.002c-.352.114-.562.292-.633.532-.07.241-.074.511-.011.81.064.299.163.622.298.966.135.345.237.661.308.946.07.287.07.561-.006.825-.074.264-.291.444-.648.537-.383.125-.68.089-.891-.104-.213-.195-.397-.477-.552-.849a5.782 5.782 0 0 1-.351-1.167l-.006-.038a6.07 6.07 0 0 0-.373-1.244l.015.04c-.154-.373-.331-.653-.529-.839-.199-.188-.502-.225-.913-.116-.352.114-.562.292-.633.532-.07.241-.074.511-.011.81.064.301.163.622.298.967s.237.66.308.946c.07.285.07.559-.006.824-.074.264-.289.444-.648.537-.383.125-.679.09-.891-.104-.213-.195-.397-.477-.551-.849a5.827 5.827 0 0 1-.351-1.167l-.006-.039a6.07 6.07 0 0 0-.373-1.244l.015.04c-.156-.373-.334-.653-.53-.839-.199-.186-.502-.225-.913-.114-.351.114-.562.292-.633.532-.07.239-.074.509-.01.81.063.299.161.621.296.966s.238.66.309.946c.07.285.068.561-.007.825-.074.264-.289.442-.648.537a1.003 1.003 0 0 1-.798-.072l.005.003a1.007 1.007 0 0 1-.52-.594l-.002-.007-3.23-9.923a1.009 1.009 0 0 0-.516-.6l-.006-.003a.988.988 0 0 0-.8-.065l.007-.002a1.01 1.01 0 0 0-.6.515l-.003.006a.988.988 0 0 0-.065.8l-.002-.007 3.971 12.203a1.743 1.743 0 0 1-.097 1.361l.005-.01c-.1.215-.245.393-.424.53l-.003.002a2.84 2.84 0 0 1-.587.345l-.018.007a1.814 1.814 0 0 1-1.397-.102l.01.005-2.857-1.455a1.1 1.1 0 0 0-.889-.071l.008-.002a1.118 1.118 0 0 0-.666.572l-.003.007c-.086.16-.136.35-.136.552 0 .125.019.245.055.358l-.002-.008c.095.296.303.533.571.665l.007.003 9.706 4.954c1.015.54 2.2.914 3.456 1.052l.044.004a8.927 8.927 0 0 0 3.685-.427l-.063.018a7.074 7.074 0 0 0 2.529-1.426l-.008.007a7.373 7.373 0 0 0 2.489-4.863l.002-.029a7.315 7.315 0 0 0-.34-2.946l.015.052-1.938-5.956z"/></symbol><symbol id="read-icon" viewBox="0 0 32 32"><path d="M28.783 6.39a1.062 1.062 0 0 0-.732.323L11.735 23.029l-6.714-6.714a1.067 1.067 0 1 0-1.51 1.508l7.468 7.468a1.065 1.065 0 0 0 1.51 0L29.558 8.222a1.067 1.067 0 0 0-.744-1.832h-.033.002z"/></symbol><symbol id="menu" viewBox="0 0 32 32"><path stroke-linejoin="round" stroke-linecap="round" stroke-width="2.667" d="M4.001 16.006H28.01M4.001 8.003H28.01M4.001 24.009H28.01"/></symbol><symbol id="close-icon" viewBox="0 0 32 32"><path d="M7.501 6.727a2.257 2.257 0 0 0-.772.776l-.006.01a1.15 1.15 0 0 0 .005.99l-.003-.007c.075.149 1.313 1.427 3.745 3.864L14.105 16l-3.635 3.64c-2.432 2.437-3.671 3.715-3.745 3.864-.235.469-.113.977.34 1.431s.961.575 1.431.34c.149-.075 1.427-1.313 3.864-3.745L16 17.895l3.64 3.635c2.437 2.432 3.715 3.671 3.864 3.745.469.235.977.113 1.431-.34s.575-.961.34-1.431c-.075-.149-1.313-1.427-3.745-3.864L17.895 16l3.635-3.64c2.432-2.437 3.671-3.715 3.745-3.864.235-.469.113-.977-.34-1.431s-.961-.575-1.431-.34c-.149.075-1.427 1.313-3.864 3.745L16 14.105l-3.64-3.635C9.923 8.038 8.645 6.799 8.496 6.725a1.173 1.173 0 0 0-1.002.005l.007-.003z"/></symbol><symbol id="location" viewBox="0 0 24 32"><path d="M12.164.881C5.607.889.293 6.202.284 12.759v.019c0 2.685.9 5.16 2.414 7.14l-.021-.028s.324.426.376.486l9.11 10.747 9.114-10.749c.047-.058.372-.483.372-.483l.001-.004a11.674 11.674 0 0 0 2.394-7.11v-.015.001C24.037 6.204 18.722.889 12.164.882h-.001zm0 16.199a4.32 4.32 0 1 1 0-8.642 4.32 4.32 0 1 1 0 8.64z"/></symbol><symbol id="search-icon" viewBox="0 0 32 32"><path d="M13.685 27.369a13.545 13.545 0 0 0 8.405-2.911l-.029.022 7.52 7.52L32 29.581l-7.52-7.518a13.517 13.517 0 0 0 2.889-8.38C27.359 6.13 21.239.009 13.687 0h-.001C6.132.009.01 6.129.001 13.682v.001C.01 21.238 6.132 27.36 13.686 27.368h.001zm0-23.947c5.664.007 10.254 4.597 10.261 10.261v.001c-.006 5.665-4.596 10.256-10.261 10.263h-.001c-5.665-.006-10.256-4.596-10.263-10.261v-.001C3.427 8.02 8.017 3.429 13.682 3.422h.001z"/></symbol><symbol id="mobile-menu" viewBox="0 0 32 32"><path d="M3.492 6.741c-.321.1-.495.235-.655.507-.129.22-.144.297-.144.752 0 .457.015.531.148.759.1.166.234.3.395.397l.005.003.252.148h25.021l.26-.16c.329-.204.507-.529.544-1.001.037-.459-.088-.885-.333-1.129-.376-.376.605-.349-13.008-.345-9.711.003-12.316.017-12.485.071zm0 8c-.321.1-.495.235-.655.507-.129.22-.144.297-.144.752 0 .457.015.531.148.759.1.166.234.3.395.397l.005.003.252.148h25.021l.26-.16c.329-.204.507-.529.544-1.001.037-.459-.088-.885-.333-1.129-.376-.376.605-.349-13.008-.345-9.711.003-12.316.017-12.485.071zm0 8c-.321.1-.495.235-.655.507-.129.22-.144.297-.144.752 0 .457.015.531.148.759.1.166.234.3.395.397l.005.003.252.148h25.021l.26-.16c.329-.204.507-.529.544-1.001.037-.459-.088-.885-.333-1.129-.376-.376.605-.349-13.008-.345-9.711.003-12.316.017-12.485.071z"/></symbol><symbol id="book-icon" viewBox="0 0 32 32"><path stroke-linejoin="round" stroke-linecap="round" stroke-width="1.111" d="M1.667 2.5h5A3.333 3.333 0 0 1 10 5.833V17.5A2.5 2.5 0 0 0 7.5 15H1.667V2.5zm16.666 0h-5A3.333 3.333 0 0 0 10 5.833V17.5a2.5 2.5 0 0 1 2.5-2.5h5.833V2.5z"/></symbol></defs></svg><svg aria-hidden="true" style="width:0;height:0;position:absolute;overflow:hidden" xmlns="http://www.w3.org/2000/svg"><defs><symbol id="heart" viewBox="0 0 32 32"><path stroke-linejoin="round" stroke-linecap="round" stroke-width="2" d="M9.337 4.001c-3.683 0-6.67 2.955-6.67 6.602 0 2.943 1.168 9.93 12.656 16.992a1.31 1.31 0 0 0 1.37-.003l-.006.003c11.488-7.063 12.656-14.049 12.656-16.992 0-3.647-2.987-6.602-6.67-6.602-3.681 0-6.668 4.001-6.668 4.001s-2.987-4.001-6.668-4.001z"/></symbol><symbol id="heart-filled" viewBox="0 0 32 32"><path d="M9.337 4.001c-3.683 0-6.67 2.955-6.67 6.602 0 2.943 1.168 9.93 12.656 16.992.194.12.43.191.682.191s.488-.071.688-.195l-.006.003c11.488-7.063 12.656-14.049 12.656-16.992 0-3.647-2.987-6.602-6.67-6.602-3.681 0-6.668 4.001-6.668 4.001S13.018 4 9.337 4z"/></symbol><symbol id="book-icon" viewBox="0 0 32 32"><path stroke-linejoin="round" stroke-linecap="round" stroke-width="1.778" d="M2.667 4.001h8.001a5.334 5.334 0 0 1 5.334 5.334v18.67a4.001 4.001 0 0 0-4.001-4.001H2.666V4.001zm26.671 0h-8.001a5.334 5.334 0 0 0-5.334 5.334v18.67a4.001 4.001 0 0 1 4.001-4.001h9.335V4.001z"/></symbol><symbol id="search" viewBox="0 0 34 32"><path d="M14.035 24.007c2.493 0 4.911-.792 6.873-2.25l6.171 5.861 1.984-1.886-6.171-5.861a10.21 10.21 0 0 0 2.371-6.528v-.002c0-5.881-5.036-10.668-11.229-10.668-6.191 0-11.227 4.787-11.227 10.668s5.036 10.666 11.227 10.666zm0-18.666c4.645 0 8.421 3.587 8.421 8s-3.776 8-8.421 8c-4.643 0-8.421-3.587-8.421-8s3.778-8 8.421-8z"/></symbol><symbol id="ellipse" viewBox="0 0 32 32"><path fill="#4b48db" d="M32.011 16.006c0 8.84-7.166 16.006-16.006 16.006S-.001 24.846-.001 16.006 7.165 0 16.005 0s16.006 7.166 16.006 16.006z"/></symbol><symbol id="arrow-down" viewBox="0 0 32 32"><path d="M3.762 9.148 0 12.629l16.01 14.816 16.01-14.816-3.762-3.481-12.247 11.31L3.764 9.148z"/></symbol><symbol id="arrow-up" viewBox="0 0 32 32"><path d="M3.762 25.158 0 21.677 16.01 6.861l16.01 14.816-3.762 3.481-12.247-11.31-12.247 11.31z"/></symbol><symbol id="calendar" viewBox="0 0 32 32"><path d="M22.667 4H28c.736 0 1.333.597 1.333 1.333v21.334c0 .736-.597 1.333-1.333 1.333H4a1.333 1.333 0 0 1-1.333-1.333V5.333C2.667 4.597 3.264 4 4 4h5.333V1.333H12V4h8V1.333h2.667V4zm4 10.667H5.333v10.666h21.334V14.667zm-6.667-8h-8v2.666H9.333V6.667h-4V12h21.334V6.667h-4v2.666H20V6.667zM8 17.333h2.667V20H8v-2.667zm6.667 0h2.666V20h-2.666v-2.667zm6.666 0H24V20h-2.667v-2.667z"/></symbol><symbol id="moon" viewBox="0 0 32 32"><path stroke-linejoin="round" stroke-linecap="round" stroke-width="2.286" d="M28.008 17.058c-.585 6.135-5.712 10.896-11.951 10.896-6.628 0-12.002-5.373-12.002-12.002 0-6.239 4.761-11.366 10.848-11.947l.048-.004a9.27 9.27 0 0 0-1.827 5.548 9.336 9.336 0 0 0 14.909 7.491l-.025.018z"/></symbol><symbol id="sun" viewBox="0 0 32 32"><path stroke-linejoin="round" stroke-linecap="round" stroke-width="2.286" d="M16.004 1.779v2.587m0 23.277v2.587M5.944 5.944l1.837 1.837m16.45 16.45 1.837 1.837M1.779 16.004h2.587m23.277 0h2.587M5.944 26.066l1.837-1.837M24.229 7.78l1.837-1.837m-3.594 10.061a6.466 6.466 0 0 1-12.932 0 6.466 6.466 0 0 1 12.932 0z"/></symbol><symbol id="toggle" viewBox="0 0 61 32"><path d="M15.238 1.226h30.475c8.162 0 14.778 6.616 14.778 14.778v-.002c0 8.162-6.616 14.778-14.778 14.778H15.238C7.076 30.78.46 24.164.46 16.002v.002c0-8.162 6.616-14.778 14.778-14.778z"/><path style="fill:var(--color4,#4b48db)" d="M25.905 16.004c0 6.733-5.458 12.19-12.19 12.19s-12.19-5.458-12.19-12.19c0-6.733 5.458-12.19 12.19-12.19s12.19 5.458 12.19 12.19z"/><path stroke-width=".922" d="M15.238 1.226h30.475c8.162 0 14.778 6.616 14.778 14.778v-.002c0 8.162-6.616 14.778-14.778 14.778H15.238C7.076 30.78.46 24.164.46 16.002v.002c0-8.162 6.616-14.778 14.778-14.778z"/></symbol><symbol id="favourite-icon" viewBox="0 0 36 32"><path stroke-linejoin="round" stroke-linecap="round" stroke-width="2" d="M31.265 4.918C29.772 3.424 27.708 2.5 25.429 2.5s-4.343.924-5.836 2.418l-1.59 1.59-1.59-1.59A8.225 8.225 0 0 0 10.6 2.524 8.253 8.253 0 0 0 4.742 16.59v-.001l13.262 13.262 13.262-13.262c1.494-1.493 2.418-3.557 2.418-5.836s-.924-4.343-2.418-5.836z"/></symbol><symbol id="home-icon" viewBox="0 0 32 32"><path fill="none" stroke="#f4f4f4" style="stroke:var(--color1,#f4f4f4)" stroke-linejoin="round" stroke-linecap="round" stroke-width="1.778" d="m4 12 12-9.333L28 12v14.667a2.668 2.668 0 0 1-2.667 2.667H6.666a2.668 2.668 0 0 1-2.667-2.667V12z"/><path fill="none" stroke="#f4f4f4" style="stroke:var(--color1,#f4f4f4)" stroke-linejoin="round" stroke-linecap="round" stroke-width="1.778" d="M12 29.333V16h8v13.333"/></symbol><symbol id="vector" viewBox="0 0 29 32"><path d="M22.203 10.415c.292-.099.628-.156.977-.156.516 0 1.003.124 1.433.345l-.018-.008a3.157 3.157 0 0 1 1.548 1.805l.006.022 1.937 5.954c.296.868.466 1.867.466 2.907 0 1.555-.382 3.02-1.057 4.308l.024-.051a9.733 9.733 0 0 1-2.206 2.822l-.011.009a9.269 9.269 0 0 1-3.177 1.825l-.066.019a10.454 10.454 0 0 1-3.383.551c-.369 0-.734-.019-1.094-.055l.045.004a12.291 12.291 0 0 1-4.361-1.312l.068.032-9.7-4.936a3.292 3.292 0 0 1-1.605-1.869l-.007-.023a3.046 3.046 0 0 1-.143-1.305l-.001.013c.043-.426.159-.829.344-1.211.185-.378.44-.703.765-.968.324-.264.7-.48 1.127-.64a3.069 3.069 0 0 1 1.01-.167c.54 0 1.048.136 1.492.377l-.017-.008 2.194 1.103-1.698-5.21a7.24 7.24 0 0 1-2.043-.569l.046.018a7.134 7.134 0 0 1-1.73-1.077l.011.009a8.032 8.032 0 0 1-1.365-1.481l-.017-.024a6.435 6.435 0 0 1-.903-1.817l-.012-.046a6.928 6.928 0 0 1-.363-2.236c0-.224.01-.446.031-.665l-.002.028c.092-1 .365-1.916.785-2.745l-.02.043a7.094 7.094 0 0 1 1.712-2.198l.009-.008A7.485 7.485 0 0 1 5.716.413l.053-.015A6.934 6.934 0 0 1 8.006.035c.225 0 .447.01.666.031L8.644.064c1 .092 1.916.365 2.745.785l-.043-.02a7.077 7.077 0 0 1 2.196 1.709l.008.009a7.502 7.502 0 0 1 1.426 2.537 7.15 7.15 0 0 1 .357 2.258 7.273 7.273 0 0 1-.928 3.566l.019-.037c.391-.025.768.024 1.127.148.362.122.701.309 1.023.558a3.161 3.161 0 0 1 2.91-.971l-.02-.003c.522.093.988.319 1.403.675a3.142 3.142 0 0 1 1.332-.863zM3.07 8.958a5.167 5.167 0 0 0 1.25 2.046 5.16 5.16 0 0 0 1.993 1.268l.036.011-1.293-3.97a3.074 3.074 0 0 1-.156-.977c0-.516.124-1.003.345-1.433l-.008.018a3.148 3.148 0 0 1 4.237-1.364l-.018-.008a3.156 3.156 0 0 1 1.548 1.803l.006.022 1.293 3.97a5.1 5.1 0 0 0 .883-2.198l.003-.028a5.13 5.13 0 0 0-.205-2.426l.011.036a5.13 5.13 0 0 0-2.564-3.001l-.029-.013a5.556 5.556 0 0 0-1.904-.554l-.025-.002a4.914 4.914 0 0 0-2.054.223 5.056 5.056 0 0 0-1.796 1.016A5.287 5.287 0 0 0 2.836 6.89l-.002.021a5.038 5.038 0 0 0 .237 2.048zm21.095 4.111a1.007 1.007 0 0 0-.517-.598l-.006-.003a.993.993 0 0 0-.8-.066l.007-.002c-.352.114-.562.292-.633.532-.07.241-.074.511-.011.81.064.299.163.622.298.966.135.345.237.661.308.946.07.287.07.561-.006.825-.074.264-.291.444-.648.537-.383.125-.68.089-.891-.104-.213-.195-.397-.477-.552-.849a5.782 5.782 0 0 1-.351-1.167l-.006-.038a6.07 6.07 0 0 0-.373-1.244l.015.04c-.154-.373-.331-.653-.529-.839-.199-.188-.502-.225-.913-.116-.352.114-.562.292-.633.532-.07.241-.074.511-.011.81.064.301.163.622.298.967s.237.66.308.946c.07.285.07.559-.006.824-.074.264-.289.444-.648.537-.383.125-.679.09-.891-.104-.213-.195-.397-.477-.551-.849a5.827 5.827 0 0 1-.351-1.167l-.006-.039a6.07 6.07 0 0 0-.373-1.244l.015.04c-.156-.373-.334-.653-.53-.839-.199-.186-.502-.225-.913-.114-.351.114-.562.292-.633.532-.07.239-.074.509-.01.81.063.299.161.621.296.966s.238.66.309.946c.07.285.068.561-.007.825-.074.264-.289.442-.648.537a1.003 1.003 0 0 1-.798-.072l.005.003a1.007 1.007 0 0 1-.52-.594l-.002-.007-3.23-9.923a1.009 1.009 0 0 0-.516-.6l-.006-.003a.988.988 0 0 0-.8-.065l.007-.002a1.01 1.01 0 0 0-.6.515l-.003.006a.988.988 0 0 0-.065.8l-.002-.007 3.971 12.203a1.743 1.743 0 0 1-.097 1.361l.005-.01c-.1.215-.245.393-.424.53l-.003.002a2.84 2.84 0 0 1-.587.345l-.018.007a1.814 1.814 0 0 1-1.397-.102l.01.005-2.857-1.455a1.1 1.1 0 0 0-.889-.071l.008-.002a1.118 1.118 0 0 0-.666.572l-.003.007c-.086.16-.136.35-.136.552 0 .125.019.245.055.358l-.002-.008c.095.296.303.533.571.665l.007.003 9.706 4.954c1.015.54 2.2.914 3.456 1.052l.044.004a8.927 8.927 0 0 0 3.685-.427l-.063.018a7.074 7.074 0 0 0 2.529-1.426l-.008.007a7.373 7.373 0 0 0 2.489-4.863l.002-.029a7.315 7.315 0 0 0-.34-2.946l.015.052-1.938-5.956z"/></symbol><symbol id="read-icon" viewBox="0 0 32 32"><path d="M28.783 6.39a1.062 1.062 0 0 0-.732.323L11.735 23.029l-6.714-6.714a1.067 1.067 0 1 0-1.51 1.508l7.468 7.468a1.065 1.065 0 0 0 1.51 0L29.558 8.222a1.067 1.067 0 0 0-.744-1.832h-.033.002z"/></symbol><symbol id="menu" viewBox="0 0 32 32"><path stroke-linejoin="round" stroke-linecap="round" stroke-width="2.667" d="M4.001 16.006H28.01M4.001 8.003H28.01M4.001 24.009H28.01"/></symbol><symbol id="close-icon" viewBox="0 0 32 32"><path d="M7.501 6.727a2.257 2.257 0 0 0-.772.776l-.006.01a1.15 1.15 0 0 0 .005.99l-.003-.007c.075.149 1.313 1.427 3.745 3.864L14.105 16l-3.635 3.64c-2.432 2.437-3.671 3.715-3.745 3.864-.235.469-.113.977.34 1.431s.961.575 1.431.34c.149-.075 1.427-1.313 3.864-3.745L16 17.895l3.64 3.635c2.437 2.432 3.715 3.671 3.864 3.745.469.235.977.113 1.431-.34s.575-.961.34-1.431c-.075-.149-1.313-1.427-3.745-3.864L17.895 16l3.635-3.64c2.432-2.437 3.671-3.715 3.745-3.864.235-.469.113-.977-.34-1.431s-.961-.575-1.431-.34c-.149.075-1.427 1.313-3.864 3.745L16 14.105l-3.64-3.635C9.923 8.038 8.645 6.799 8.496 6.725a1.173 1.173 0 0 0-1.002.005l.007-.003z"/></symbol><symbol id="location" viewBox="0 0 24 32"><path d="M12.164.881C5.607.889.293 6.202.284 12.759v.019c0 2.685.9 5.16 2.414 7.14l-.021-.028s.324.426.376.486l9.11 10.747 9.114-10.749c.047-.058.372-.483.372-.483l.001-.004a11.674 11.674 0 0 0 2.394-7.11v-.015.001C24.037 6.204 18.722.889 12.164.882h-.001zm0 16.199a4.32 4.32 0 1 1 0-8.642 4.32 4.32 0 1 1 0 8.64z"/></symbol><symbol id="search-icon" viewBox="0 0 32 32"><path d="M13.685 27.369a13.545 13.545 0 0 0 8.405-2.911l-.029.022 7.52 7.52L32 29.581l-7.52-7.518a13.517 13.517 0 0 0 2.889-8.38C27.359 6.13 21.239.009 13.687 0h-.001C6.132.009.01 6.129.001 13.682v.001C.01 21.238 6.132 27.36 13.686 27.368h.001zm0-23.947c5.664.007 10.254 4.597 10.261 10.261v.001c-.006 5.665-4.596 10.256-10.261 10.263h-.001c-5.665-.006-10.256-4.596-10.263-10.261v-.001C3.427 8.02 8.017 3.429 13.682 3.422h.001z"/></symbol><symbol id="mobile-menu" viewBox="0 0 32 32"><path d="M3.492 6.741c-.321.1-.495.235-.655.507-.129.22-.144.297-.144.752 0 .457.015.531.148.759.1.166.234.3.395.397l.005.003.252.148h25.021l.26-.16c.329-.204.507-.529.544-1.001.037-.459-.088-.885-.333-1.129-.376-.376.605-.349-13.008-.345-9.711.003-12.316.017-12.485.071zm0 8c-.321.1-.495.235-.655.507-.129.22-.144.297-.144.752 0 .457.015.531.148.759.1.166.234.3.395.397l.005.003.252.148h25.021l.26-.16c.329-.204.507-.529.544-1.001.037-.459-.088-.885-.333-1.129-.376-.376.605-.349-13.008-.345-9.711.003-12.316.017-12.485.071zm0 8c-.321.1-.495.235-.655.507-.129.22-.144.297-.144.752 0 .457.015.531.148.759.1.166.234.3.395.397l.005.003.252.148h25.021l.26-.16c.329-.204.507-.529.544-1.001.037-.459-.088-.885-.333-1.129-.376-.376.605-.349-13.008-.345-9.711.003-12.316.017-12.485.071z"/></symbol><symbol id="like" viewBox="0 0 37 32"><path stroke-linejoin="round" stroke-linecap="round" stroke-width="2.286" d="M10.666 2.286c-4.207 0-7.619 3.377-7.619 7.543 0 3.363 1.333 11.345 14.458 19.413a1.501 1.501 0 0 0 1.56 0c13.125-8.069 14.458-16.05 14.458-19.413 0-4.166-3.412-7.543-7.619-7.543s-7.619 4.571-7.619 4.571-3.412-4.571-7.619-4.571z"/></symbol><symbol id="icon-arrowback" viewBox="0 0 16 32"><path d="M0 16c0 .596.204 1.107.642 1.55l12.192 12.982c.345.375.784.579 1.301.579 1.034 0 1.865-.886 1.865-2.027 0-.562-.219-1.056-.564-1.448L4.451 16 15.436 4.364c.345-.392.564-.903.564-1.448 0-1.141-.831-2.027-1.865-2.027-.517 0-.956.204-1.301.579L.642 14.433C.203 14.893 0 15.404 0 16z"/></symbol><symbol id="icon-arrownext" viewBox="0 0 16 32"><path d="M16 16a2.309 2.309 0 0 0-.643-1.567L3.165 1.468c-.36-.375-.784-.579-1.301-.579-1.05 0-1.865.886-1.865 2.027 0 .545.204 1.056.564 1.448L11.533 16 .563 27.636a2.1 2.1 0 0 0-.564 1.448c0 1.142.815 2.027 1.865 2.027.501 0 .94-.204 1.301-.579L15.357 17.55c.439-.443.642-.954.642-1.55z"/></symbol></defs></svg>