<svg width="18" height="16" viewBox="0 0 18 16" fill="none" xmlns="http://www.w3.org/2000/svg">
<path d="M15.6306 2.45753C15.2475 2.07428 14.7927 1.77026 14.2921 1.56284C13.7915 1.35542 13.2549 1.24866 12.7131 1.24866C12.1712 1.24866 11.6347 1.35542 11.1341 1.56284C10.6335 1.77026 10.1786 2.07428 9.79558 2.45753L9.00058 3.25253L8.20558 2.45753C7.43181 1.68376 6.38235 1.24906 5.28808 1.24906C4.1938 1.24906 3.14435 1.68376 2.37058 2.45753C1.59681 3.2313 1.16211 4.28075 1.16211 5.37503C1.16211 6.4693 1.59681 7.51876 2.37058 8.29253L3.16558 9.08753L9.00058 14.9225L14.8356 9.08753L15.6306 8.29253C16.0138 7.90946 16.3178 7.45464 16.5253 6.95404C16.7327 6.45345 16.8394 5.91689 16.8394 5.37503C16.8394 4.83316 16.7327 4.2966 16.5253 3.79601C16.3178 3.29542 16.0138 2.84059 15.6306 2.45753V2.45753Z" stroke="#F4F4F4" stroke-linecap="round" stroke-linejoin="round"/>
</svg>
