<svg aria-hidden="true" style="position: absolute; width: 0; height: 0; overflow: hidden;" version="1.1"
    xmlns="http://www.w3.org/2000/svg" xmlns:xlink="http://www.w3.org/1999/xlink">
    <defs>
        <symbol id="heart" viewBox="0 0 32 32">
            <path stroke-linejoin="round" stroke-linecap="round" stroke-miterlimit="4" stroke-width="2"
                d="M9.337 4.001c-3.683 0-6.67 2.955-6.67 6.602 0 2.943 1.168 9.93 12.656 16.992 0.194 0.12 0.43 0.191 0.682 0.191s0.488-0.071 0.688-0.194l-0.006 0.003c11.488-7.063 12.656-14.049 12.656-16.992 0-3.647-2.987-6.602-6.67-6.602-3.681 0-6.668 4.001-6.668 4.001s-2.987-4.001-6.668-4.001z">
            </path>
        </symbol>
        <symbol id="heart-filled" viewBox="0 0 32 32">
            <path
                d="M9.337 4.001c-3.683 0-6.67 2.955-6.67 6.602 0 2.943 1.168 9.93 12.656 16.992 0.194 0.12 0.43 0.191 0.682 0.191s0.488-0.071 0.688-0.195l-0.006 0.003c11.488-7.063 12.656-14.049 12.656-16.992 0-3.647-2.987-6.602-6.67-6.602-3.681 0-6.668 4.001-6.668 4.001s-2.987-4.001-6.668-4.001z">
            </path>
        </symbol>
        <symbol id="book-icon" viewBox="0 0 32 32">
            <path stroke-linejoin="round" stroke-linecap="round" stroke-miterlimit="4" stroke-width="1.7778"
                d="M2.667 4.001h8.001c2.946 0 5.334 2.388 5.334 5.334v0 18.67c0-2.209-1.791-4.001-4.001-4.001v0h-9.335v-20.003zM29.338 4.001h-8.001c-2.946 0-5.334 2.388-5.334 5.334v0 18.67c0-2.209 1.791-4.001 4.001-4.001v0h9.335v-20.003z">
            </path>
        </symbol>
        <symbol id="search" viewBox="0 0 34 32">
            <path
                d="M14.035 24.007c2.493 0 4.911-0.792 6.873-2.25l6.171 5.861 1.984-1.886-6.171-5.861c1.468-1.757 2.363-4.038 2.371-6.528v-0.002c0-5.881-5.036-10.668-11.229-10.668-6.191 0-11.227 4.787-11.227 10.668s5.036 10.666 11.227 10.666zM14.035 5.341c4.645 0 8.421 3.587 8.421 8s-3.776 8-8.421 8c-4.643 0-8.421-3.587-8.421-8s3.778-8 8.421-8z">
            </path>
        </symbol>
        <symbol id="ellipse" viewBox="0 0 32 32">
            <path fill="#4b48db"
                d="M32.011 16.006c0 8.84-7.166 16.006-16.006 16.006s-16.006-7.166-16.006-16.006c0-8.84 7.166-16.006 16.006-16.006s16.006 7.166 16.006 16.006z">
            </path>
        </symbol>
        <symbol id="arrow-down" viewBox="0 0 32 32">
            <path d="M3.762 9.148l-3.762 3.481 16.010 14.816 16.010-14.816-3.762-3.481-12.247 11.31-12.247-11.31z">
            </path>
        </symbol>
        <symbol id="arrow-up" viewBox="0 0 32 32">
            <path d="M3.762 25.158l-3.762-3.481 16.010-14.816 16.010 14.816-3.762 3.481-12.247-11.31-12.247 11.31z">
            </path>
        </symbol>
        <symbol id="calendar" viewBox="0 0 32 32">
            <path
                d="M22.667 4h5.333c0.736 0 1.333 0.597 1.333 1.333v0 21.334c0 0.736-0.597 1.333-1.333 1.333v0h-24c-0.736 0-1.333-0.597-1.333-1.333v0-21.334c0-0.736 0.597-1.333 1.333-1.333v0h5.333v-2.667h2.667v2.667h8v-2.667h2.667v2.667zM26.667 14.667h-21.334v10.666h21.334v-10.666zM20 6.667h-8v2.666h-2.667v-2.666h-4v5.333h21.334v-5.333h-4v2.666h-2.667v-2.666zM8 17.333h2.667v2.667h-2.667v-2.667zM14.667 17.333h2.666v2.667h-2.666v-2.667zM21.333 17.333h2.667v2.667h-2.667v-2.667z">
            </path>
        </symbol>
        <symbol id="moon" viewBox="0 0 32 32">
            <path
                d="M24.821 23.268q-0.964 0.161-1.964 0.161-3.25 0-6.018-1.607t-4.375-4.375-1.607-6.018q0-3.429 1.857-6.375-3.589 1.071-5.866 4.089t-2.277 6.857q0 2.321 0.911 4.438t2.438 3.643 3.643 2.438 4.438 0.911q2.571 0 4.884-1.098t3.938-3.063zM28.446 21.75q-1.679 3.625-5.063 5.795t-7.384 2.17q-2.786 0-5.321-1.089t-4.375-2.929-2.929-4.375-1.089-5.321q0-2.732 1.027-5.223t2.786-4.313 4.205-2.938 5.179-1.223q0.786-0.036 1.089 0.696 0.321 0.732-0.268 1.286-1.536 1.393-2.348 3.241t-0.813 3.902q0 2.643 1.304 4.875t3.536 3.536 4.875 1.304q2.107 0 4.071-0.911 0.732-0.321 1.286 0.232 0.25 0.25 0.313 0.607t-0.080 0.679z">
            </path>
        </symbol>
        <symbol id="sun" viewBox="0 0 32 32">
            <path
                d="M16 9c-3.859 0-7 3.141-7 7s3.141 7 7 7 7-3.141 7-7-3.141-7-7-7zM16 21c-2.762 0-5-2.238-5-5s2.238-5 5-5c2.762 0 5 2.238 5 5s-2.238 5-5 5zM16 7c0.552 0 1-0.448 1-1v-2c0-0.552-0.448-1-1-1s-1 0.448-1 1v2c0 0.552 0.448 1 1 1zM16 25c-0.552 0-1 0.448-1 1v2c0 0.552 0.448 1 1 1s1-0.448 1-1v-2c0-0.552-0.448-1-1-1zM23.777 9.635l1.414-1.414c0.391-0.391 0.391-1.023 0-1.414s-1.023-0.391-1.414 0l-1.414 1.414c-0.391 0.391-0.391 1.023 0 1.414s1.023 0.391 1.414 0zM8.223 22.365l-1.414 1.414c-0.391 0.391-0.391 1.023 0 1.414s1.023 0.391 1.414 0l1.414-1.414c0.391-0.392 0.391-1.023 0-1.414s-1.023-0.392-1.414 0zM7 16c0-0.552-0.448-1-1-1h-2c-0.552 0-1 0.448-1 1s0.448 1 1 1h2c0.552 0 1-0.448 1-1zM28 15h-2c-0.552 0-1 0.448-1 1s0.448 1 1 1h2c0.552 0 1-0.448 1-1s-0.448-1-1-1zM8.221 9.635c0.391 0.391 1.024 0.391 1.414 0s0.391-1.023 0-1.414l-1.414-1.414c-0.391-0.391-1.023-0.391-1.414 0s-0.391 1.023 0 1.414l1.414 1.414zM23.779 22.363c-0.392-0.391-1.023-0.391-1.414 0s-0.392 1.023 0 1.414l1.414 1.414c0.391 0.391 1.023 0.391 1.414 0s0.391-1.023 0-1.414l-1.414-1.414z">
            </path>
        </symbol>
        <symbol id="toggle" viewBox="0 0 61 32">
            <path
                d="M15.238 1.226h30.475c8.162 0 14.778 6.616 14.778 14.778v-0.002c0 8.162-6.616 14.778-14.778 14.778h-30.475c-8.162 0-14.778-6.616-14.778-14.778v0.002c0-8.162 6.616-14.778 14.778-14.778z">
            </path>
            <path style="fill: var(--color4, #4b48db)"
                d="M25.905 16.004c0 6.733-5.458 12.19-12.19 12.19s-12.19-5.458-12.19-12.19c0-6.733 5.458-12.19 12.19-12.19s12.19 5.458 12.19 12.19z">
            </path>
            <path stroke-linejoin="miter" stroke-linecap="butt" stroke-miterlimit="4" stroke-width="0.9219"
                d="M15.238 1.226h30.475c8.162 0 14.778 6.616 14.778 14.778v-0.002c0 8.162-6.616 14.778-14.778 14.778h-30.475c-8.162 0-14.778-6.616-14.778-14.778v0.002c0-8.162 6.616-14.778 14.778-14.778z">
            </path>
        </symbol>
        <symbol id="favourite-icon" viewBox="0 0 36 32">
            <path fill="none" stroke="#f4f4f4" style="stroke: var(--color1, #f4f4f4)" stroke-linejoin="round"
                stroke-linecap="round" stroke-miterlimit="4" stroke-width="2"
                d="M31.261 4.915c-0.766-0.766-1.676-1.375-2.677-1.789s-2.074-0.628-3.158-0.628c-1.084 0-2.157 0.214-3.158 0.628s-1.911 1.023-2.677 1.789l-1.59 1.59-1.59-1.59c-1.548-1.548-3.646-2.417-5.835-2.417s-4.287 0.869-5.835 2.417c-1.548 1.548-2.417 3.646-2.417 5.835s0.869 4.287 2.417 5.835l13.26 13.26 13.26-13.26c0.766-0.766 1.374-1.676 1.789-2.677s0.628-2.074 0.628-3.158-0.213-2.157-0.628-3.158c-0.415-1.001-1.023-1.911-1.789-2.677v0z">
            </path>
        </symbol>
        <symbol id="home-icon" viewBox="0 0 32 32">
            <path fill="none" stroke="#f4f4f4" style="stroke: var(--color1, #f4f4f4)" stroke-linejoin="round"
                stroke-linecap="round" stroke-miterlimit="4" stroke-width="1.7778"
                d="M4 12l12-9.333 12 9.333v14.667c0 0.707-0.281 1.386-0.781 1.886s-1.178 0.781-1.886 0.781h-18.667c-0.707 0-1.386-0.281-1.886-0.781s-0.781-1.178-0.781-1.886v-14.667z">
            </path>
            <path fill="none" stroke="#f4f4f4" style="stroke: var(--color1, #f4f4f4)" stroke-linejoin="round"
                stroke-linecap="round" stroke-miterlimit="4" stroke-width="1.7778" d="M12 29.333v-13.333h8v13.333">
            </path>
        </symbol>
        <symbol id="vector" viewBox="0 0 29 32">
            <path
                d="M22.203 10.415c0.292-0.099 0.628-0.156 0.977-0.156 0.516 0 1.003 0.124 1.433 0.345l-0.018-0.008c0.735 0.383 1.29 1.026 1.548 1.805l0.006 0.022 1.937 5.954c0.296 0.868 0.466 1.867 0.466 2.907 0 1.555-0.382 3.020-1.057 4.308l0.024-0.051c-0.579 1.106-1.321 2.044-2.206 2.822l-0.011 0.009c-0.909 0.799-1.989 1.428-3.177 1.825l-0.066 0.019c-1.009 0.349-2.173 0.551-3.383 0.551-0.369 0-0.734-0.019-1.094-0.055l0.045 0.004c-1.594-0.175-3.047-0.629-4.361-1.312l0.068 0.032-9.7-4.936c-0.761-0.398-1.335-1.064-1.605-1.869l-0.007-0.023c-0.101-0.293-0.16-0.631-0.16-0.983 0-0.109 0.006-0.216 0.017-0.322l-0.001 0.013c0.043-0.426 0.159-0.829 0.344-1.211 0.185-0.378 0.44-0.703 0.765-0.968 0.324-0.264 0.7-0.48 1.127-0.64 0.301-0.106 0.648-0.167 1.010-0.167 0.54 0 1.048 0.136 1.492 0.377l-0.017-0.008 2.194 1.103-1.698-5.21c-0.742-0.096-1.416-0.289-2.043-0.569l0.046 0.018c-0.658-0.292-1.224-0.65-1.73-1.077l0.011 0.009c-0.522-0.441-0.977-0.936-1.365-1.481l-0.017-0.024c-0.383-0.534-0.695-1.153-0.903-1.817l-0.012-0.046c-0.23-0.667-0.363-1.436-0.363-2.236 0-0.224 0.010-0.446 0.031-0.665l-0.002 0.028c0.092-1 0.365-1.916 0.785-2.745l-0.020 0.043c0.438-0.867 1.016-1.599 1.712-2.198l0.009-0.008c0.714-0.613 1.558-1.1 2.482-1.411l0.053-0.015c0.667-0.23 1.437-0.363 2.237-0.363 0.225 0 0.447 0.010 0.666 0.031l-0.028-0.002c1 0.092 1.916 0.365 2.745 0.785l-0.043-0.020c0.866 0.437 1.598 1.014 2.196 1.709l0.008 0.009c0.625 0.724 1.099 1.568 1.426 2.537 0.227 0.674 0.357 1.451 0.357 2.258 0 1.295-0.337 2.511-0.928 3.566l0.019-0.037c0.391-0.025 0.768 0.024 1.127 0.148 0.362 0.122 0.701 0.309 1.023 0.558 0.581-0.63 1.41-1.024 2.331-1.024 0.198 0 0.391 0.018 0.579 0.053l-0.020-0.003c0.522 0.093 0.988 0.319 1.403 0.675 0.381-0.409 0.825-0.696 1.332-0.863zM3.070 8.958c0.265 0.802 0.693 1.487 1.25 2.046l-0-0c0.552 0.565 1.232 1.003 1.993 1.268l0.036 0.011-1.293-3.97c-0.099-0.292-0.156-0.628-0.156-0.977 0-0.516 0.124-1.003 0.345-1.433l-0.008 0.018c0.532-1.024 1.584-1.712 2.798-1.712 0.519 0 1.008 0.126 1.439 0.348l-0.018-0.008c0.735 0.382 1.289 1.025 1.548 1.803l0.006 0.022 1.293 3.97c0.447-0.628 0.761-1.382 0.883-2.198l0.003-0.028c0.039-0.237 0.061-0.51 0.061-0.788 0-0.573-0.093-1.123-0.266-1.638l0.011 0.036c-0.435-1.33-1.364-2.396-2.564-3.001l-0.029-0.013c-0.561-0.283-1.214-0.481-1.904-0.554l-0.025-0.002c-0.687-0.072-1.372 0.001-2.054 0.223-0.682 0.223-1.28 0.561-1.796 1.016-0.996 0.874-1.659 2.106-1.787 3.493l-0.002 0.021c-0.064 0.683 0.015 1.366 0.237 2.048zM24.165 13.069c-0.087-0.267-0.274-0.48-0.517-0.598l-0.006-0.003c-0.137-0.075-0.301-0.12-0.475-0.12-0.114 0-0.223 0.019-0.325 0.054l0.007-0.002c-0.352 0.114-0.562 0.292-0.633 0.532-0.070 0.241-0.074 0.511-0.011 0.81 0.064 0.299 0.163 0.622 0.298 0.966 0.135 0.345 0.237 0.661 0.308 0.946 0.070 0.287 0.070 0.561-0.006 0.825-0.074 0.264-0.291 0.444-0.648 0.537-0.383 0.125-0.68 0.089-0.891-0.104-0.213-0.195-0.397-0.477-0.552-0.849-0.147-0.344-0.271-0.748-0.351-1.167l-0.006-0.038c-0.087-0.457-0.211-0.86-0.373-1.244l0.015 0.040c-0.154-0.373-0.331-0.653-0.529-0.839-0.199-0.188-0.502-0.225-0.913-0.116-0.352 0.114-0.562 0.292-0.633 0.532-0.070 0.241-0.074 0.511-0.011 0.81 0.064 0.301 0.163 0.622 0.298 0.967s0.237 0.66 0.308 0.946c0.070 0.285 0.070 0.559-0.006 0.824-0.074 0.264-0.289 0.444-0.648 0.537-0.383 0.125-0.679 0.090-0.891-0.104-0.213-0.195-0.397-0.477-0.551-0.849-0.147-0.344-0.27-0.747-0.351-1.167l-0.006-0.039c-0.087-0.457-0.211-0.86-0.373-1.244l0.015 0.040c-0.156-0.373-0.334-0.653-0.53-0.839-0.199-0.186-0.502-0.225-0.913-0.114-0.351 0.114-0.562 0.292-0.633 0.532-0.070 0.239-0.074 0.509-0.010 0.81 0.063 0.299 0.161 0.621 0.296 0.966s0.238 0.66 0.309 0.946c0.070 0.285 0.068 0.561-0.007 0.825-0.074 0.264-0.289 0.442-0.648 0.537-0.094 0.032-0.203 0.051-0.316 0.051-0.175 0-0.339-0.045-0.482-0.123l0.005 0.003c-0.248-0.121-0.436-0.334-0.52-0.594l-0.002-0.007-3.23-9.923c-0.086-0.267-0.273-0.481-0.516-0.6l-0.006-0.003c-0.137-0.075-0.3-0.119-0.474-0.119-0.114 0-0.224 0.019-0.326 0.054l0.007-0.002c-0.267 0.086-0.481 0.273-0.6 0.515l-0.003 0.006c-0.075 0.137-0.119 0.3-0.119 0.474 0 0.114 0.019 0.224 0.054 0.326l-0.002-0.007 3.971 12.203c0.060 0.169 0.094 0.364 0.094 0.566 0 0.286-0.069 0.556-0.191 0.795l0.005-0.010c-0.1 0.215-0.245 0.393-0.424 0.53l-0.003 0.002c-0.175 0.134-0.374 0.252-0.587 0.345l-0.018 0.007c-0.172 0.059-0.37 0.093-0.575 0.093-0.296 0-0.575-0.070-0.822-0.195l0.010 0.005-2.857-1.455c-0.152-0.083-0.333-0.132-0.526-0.132-0.127 0-0.249 0.021-0.363 0.061l0.008-0.002c-0.297 0.095-0.534 0.303-0.666 0.572l-0.003 0.007c-0.086 0.16-0.136 0.35-0.136 0.552 0 0.125 0.019 0.245 0.055 0.358l-0.002-0.008c0.095 0.296 0.303 0.533 0.571 0.665l0.007 0.003 9.706 4.954c1.015 0.54 2.2 0.914 3.456 1.052l0.044 0.004c0.249 0.025 0.538 0.038 0.83 0.038 0.998 0 1.959-0.163 2.855-0.465l-0.063 0.018c0.975-0.314 1.816-0.799 2.529-1.426l-0.008 0.007c1.386-1.217 2.309-2.932 2.489-4.863l0.002-0.029c0.018-0.194 0.029-0.418 0.029-0.646 0-0.804-0.13-1.577-0.369-2.3l0.015 0.052-1.938-5.956z">
            </path>
        </symbol>
        <symbol id="read-icon" viewBox="0 0 32 32">
            <path
                d="M28.783 6.39c-0.288 0.009-0.546 0.131-0.732 0.323l-16.316 16.316-6.714-6.714c-0.194-0.197-0.463-0.319-0.761-0.319-0.589 0-1.067 0.478-1.067 1.067 0 0.297 0.122 0.566 0.318 0.76l7.468 7.468c0.193 0.193 0.46 0.313 0.755 0.313s0.562-0.12 0.755-0.313v0l17.069-17.069c0.2-0.194 0.323-0.465 0.323-0.765 0-0.589-0.478-1.067-1.067-1.067-0.011 0-0.022 0-0.033 0l0.002-0z">
            </path>
        </symbol>
        <symbol id="menu" viewBox="0 0 32 32">
            <path stroke-linejoin="round" stroke-linecap="round" stroke-miterlimit="4" stroke-width="2.6667"
                d="M4.001 16.006h24.009M4.001 8.003h24.009M4.001 24.009h24.009"></path>
        </symbol>
        <symbol id="close-icon" viewBox="0 0 32 32">
            <path
                d="M7.501 6.727c-0.322 0.196-0.585 0.461-0.772 0.776l-0.006 0.010c-0.069 0.144-0.109 0.312-0.109 0.49 0 0.179 0.041 0.348 0.114 0.5l-0.003-0.007c0.075 0.149 1.313 1.427 3.745 3.864l3.635 3.64-3.635 3.64c-2.432 2.437-3.671 3.715-3.745 3.864-0.235 0.469-0.113 0.977 0.34 1.431s0.961 0.575 1.431 0.34c0.149-0.075 1.427-1.313 3.864-3.745l3.64-3.635 3.64 3.635c2.437 2.432 3.715 3.671 3.864 3.745 0.469 0.235 0.977 0.113 1.431-0.34s0.575-0.961 0.34-1.431c-0.075-0.149-1.313-1.427-3.745-3.864l-3.635-3.64 3.635-3.64c2.432-2.437 3.671-3.715 3.745-3.864 0.235-0.469 0.113-0.977-0.34-1.431s-0.961-0.575-1.431-0.34c-0.149 0.075-1.427 1.313-3.864 3.745l-3.64 3.635-3.64-3.635c-2.437-2.432-3.715-3.671-3.864-3.745-0.145-0.069-0.316-0.109-0.496-0.109-0.181 0-0.353 0.041-0.506 0.114l0.007-0.003z">
            </path>
        </symbol>
        <symbol id="location" viewBox="0 0 24 32">
            <path
                d="M12.164 0.881c-6.557 0.008-11.871 5.321-11.88 11.878v0.001c0 0.005 0 0.012 0 0.018 0 2.685 0.9 5.16 2.414 7.14l-0.021-0.028s0.324 0.426 0.376 0.486l9.11 10.747 9.114-10.749c0.047-0.058 0.372-0.483 0.372-0.483l0.001-0.004c1.494-1.951 2.394-4.425 2.394-7.11 0-0.005 0-0.010 0-0.015v0.001c-0.007-6.559-5.322-11.874-11.88-11.881h-0.001zM12.164 17.080c-2.386 0-4.321-1.934-4.321-4.321s1.934-4.321 4.321-4.321v0c2.386 0 4.32 1.934 4.32 4.32s-1.934 4.32-4.32 4.32v0z">
            </path>
        </symbol>
        <symbol id="search-icon" viewBox="0 0 32 32">
            <path
                d="M13.685 27.369c3.173-0.001 6.091-1.089 8.405-2.911l-0.029 0.022 7.52 7.52 2.419-2.419-7.52-7.518c1.801-2.285 2.888-5.205 2.889-8.38v-0c-0.010-7.553-6.13-13.674-13.682-13.683h-0.001c-7.554 0.009-13.676 6.129-13.685 13.682v0.001c0.009 7.555 6.131 13.677 13.685 13.685h0.001zM13.685 3.422c5.664 0.007 10.254 4.597 10.261 10.261v0.001c-0.006 5.665-4.596 10.256-10.261 10.263h-0.001c-5.665-0.006-10.256-4.596-10.263-10.261v-0.001c0.006-5.665 4.596-10.256 10.261-10.263h0.001z">
            </path>
        </symbol>
        <symbol id="mobile-menu" viewBox="0 0 32 32">
            <path
                d="M3.492 6.741c-0.321 0.1-0.495 0.235-0.655 0.507-0.129 0.22-0.144 0.297-0.144 0.752 0 0.457 0.015 0.531 0.148 0.759 0.1 0.166 0.234 0.3 0.395 0.397l0.005 0.003 0.252 0.148h25.021l0.26-0.16c0.329-0.204 0.507-0.529 0.544-1.001 0.037-0.459-0.088-0.885-0.333-1.129-0.376-0.376 0.605-0.349-13.008-0.345-9.711 0.003-12.316 0.017-12.485 0.071zM3.492 14.741c-0.321 0.1-0.495 0.235-0.655 0.507-0.129 0.22-0.144 0.297-0.144 0.752 0 0.457 0.015 0.531 0.148 0.759 0.1 0.166 0.234 0.3 0.395 0.397l0.005 0.003 0.252 0.148h25.021l0.26-0.16c0.329-0.204 0.507-0.529 0.544-1.001 0.037-0.459-0.088-0.885-0.333-1.129-0.376-0.376 0.605-0.349-13.008-0.345-9.711 0.003-12.316 0.017-12.485 0.071zM3.492 22.741c-0.321 0.1-0.495 0.235-0.655 0.507-0.129 0.22-0.144 0.297-0.144 0.752 0 0.457 0.015 0.531 0.148 0.759 0.1 0.166 0.234 0.3 0.395 0.397l0.005 0.003 0.252 0.148h25.021l0.26-0.16c0.329-0.204 0.507-0.529 0.544-1.001 0.037-0.459-0.088-0.885-0.333-1.129-0.376-0.376 0.605-0.349-13.008-0.345-9.711 0.003-12.316 0.017-12.485 0.071z">
            </path>
        </symbol>
        <symbol id="book-icon" viewBox="0 0 32 32">
            <path stroke-linejoin="round" stroke-linecap="round" stroke-miterlimit="4" stroke-width="1.1111"
                d="M1.667 2.5h5c1.841 0 3.333 1.492 3.333 3.333v0 11.667c0-1.381-1.119-2.5-2.5-2.5v0h-5.833v-12.5zM18.333 2.5h-5c-1.841 0-3.333 1.492-3.333 3.333v0 11.667c0-1.381 1.119-2.5 2.5-2.5v0h5.833v-12.5z">
            </path>
        </symbol>
    </defs>
</svg>

<svg aria-hidden="true" style="position: absolute; width: 0; height: 0; overflow: hidden;" version="1.1"
    xmlns="http://www.w3.org/2000/svg" xmlns:xlink="http://www.w3.org/1999/xlink">
    <defs>
        <symbol id="heart" viewBox="0 0 32 32">
            <path stroke-linejoin="round" stroke-linecap="round" stroke-miterlimit="4" stroke-width="2"
                d="M9.337 4.001c-3.683 0-6.67 2.955-6.67 6.602 0 2.943 1.168 9.93 12.656 16.992 0.194 0.12 0.43 0.191 0.682 0.191s0.488-0.071 0.688-0.194l-0.006 0.003c11.488-7.063 12.656-14.049 12.656-16.992 0-3.647-2.987-6.602-6.67-6.602-3.681 0-6.668 4.001-6.668 4.001s-2.987-4.001-6.668-4.001z">
            </path>
        </symbol>
        <symbol id="heart-filled" viewBox="0 0 32 32">
            <path
                d="M9.337 4.001c-3.683 0-6.67 2.955-6.67 6.602 0 2.943 1.168 9.93 12.656 16.992 0.194 0.12 0.43 0.191 0.682 0.191s0.488-0.071 0.688-0.195l-0.006 0.003c11.488-7.063 12.656-14.049 12.656-16.992 0-3.647-2.987-6.602-6.67-6.602-3.681 0-6.668 4.001-6.668 4.001s-2.987-4.001-6.668-4.001z">
            </path>
        </symbol>
        <symbol id="book-icon" viewBox="0 0 32 32">
            <path stroke-linejoin="round" stroke-linecap="round" stroke-miterlimit="4" stroke-width="1.7778"
                d="M2.667 4.001h8.001c2.946 0 5.334 2.388 5.334 5.334v0 18.67c0-2.209-1.791-4.001-4.001-4.001v0h-9.335v-20.003zM29.338 4.001h-8.001c-2.946 0-5.334 2.388-5.334 5.334v0 18.67c0-2.209 1.791-4.001 4.001-4.001v0h9.335v-20.003z">
            </path>
        </symbol>
        <symbol id="search" viewBox="0 0 34 32">
            <path
                d="M14.035 24.007c2.493 0 4.911-0.792 6.873-2.25l6.171 5.861 1.984-1.886-6.171-5.861c1.468-1.757 2.363-4.038 2.371-6.528v-0.002c0-5.881-5.036-10.668-11.229-10.668-6.191 0-11.227 4.787-11.227 10.668s5.036 10.666 11.227 10.666zM14.035 5.341c4.645 0 8.421 3.587 8.421 8s-3.776 8-8.421 8c-4.643 0-8.421-3.587-8.421-8s3.778-8 8.421-8z">
            </path>
        </symbol>
        <symbol id="ellipse" viewBox="0 0 32 32">
            <path fill="#4b48db"
                d="M32.011 16.006c0 8.84-7.166 16.006-16.006 16.006s-16.006-7.166-16.006-16.006c0-8.84 7.166-16.006 16.006-16.006s16.006 7.166 16.006 16.006z">
            </path>
        </symbol>
        <symbol id="arrow-down" viewBox="0 0 32 32">
            <path d="M3.762 9.148l-3.762 3.481 16.010 14.816 16.010-14.816-3.762-3.481-12.247 11.31-12.247-11.31z">
            </path>
        </symbol>
        <symbol id="arrow-up" viewBox="0 0 32 32">
            <path d="M3.762 25.158l-3.762-3.481 16.010-14.816 16.010 14.816-3.762 3.481-12.247-11.31-12.247 11.31z">
            </path>
        </symbol>
        <symbol id="calendar" viewBox="0 0 32 32">
            <path
                d="M22.667 4h5.333c0.736 0 1.333 0.597 1.333 1.333v0 21.334c0 0.736-0.597 1.333-1.333 1.333v0h-24c-0.736 0-1.333-0.597-1.333-1.333v0-21.334c0-0.736 0.597-1.333 1.333-1.333v0h5.333v-2.667h2.667v2.667h8v-2.667h2.667v2.667zM26.667 14.667h-21.334v10.666h21.334v-10.666zM20 6.667h-8v2.666h-2.667v-2.666h-4v5.333h21.334v-5.333h-4v2.666h-2.667v-2.666zM8 17.333h2.667v2.667h-2.667v-2.667zM14.667 17.333h2.666v2.667h-2.666v-2.667zM21.333 17.333h2.667v2.667h-2.667v-2.667z">
            </path>
        </symbol>
        <symbol id="moon" viewBox="0 0 32 32">
            <path stroke-linejoin="round" stroke-linecap="round" stroke-miterlimit="4" stroke-width="2.2857"
                d="M28.008 17.058c-0.585 6.135-5.712 10.896-11.951 10.896-6.628 0-12.002-5.373-12.002-12.002 0-6.239 4.761-11.366 10.848-11.947l0.048-0.004c-1.141 1.531-1.827 3.459-1.827 5.548 0 5.156 4.18 9.336 9.336 9.336 2.089 0 4.017-0.686 5.573-1.845l-0.025 0.018z">
            </path>
        </symbol>
        <symbol id="sun" viewBox="0 0 32 32">
            <path stroke-linejoin="round" stroke-linecap="round" stroke-miterlimit="4" stroke-width="2.2857"
                d="M16.004 1.779v2.587M16.004 27.643v2.587M5.944 5.944l1.837 1.837M24.231 24.231l1.837 1.837M1.779 16.004h2.587M27.643 16.004h2.587M5.944 26.066l1.837-1.837M24.229 7.78l1.837-1.837M22.472 16.004c0 3.571-2.895 6.466-6.466 6.466s-6.466-2.895-6.466-6.466v0c0-3.571 2.895-6.466 6.466-6.466s6.466 2.895 6.466 6.466v0z">
            </path>
        </symbol>
        <symbol id="toggle" viewBox="0 0 61 32">
            <path
                d="M15.238 1.226h30.475c8.162 0 14.778 6.616 14.778 14.778v-0.002c0 8.162-6.616 14.778-14.778 14.778h-30.475c-8.162 0-14.778-6.616-14.778-14.778v0.002c0-8.162 6.616-14.778 14.778-14.778z">
            </path>
            <path style="fill: var(--color4, #4b48db)"
                d="M25.905 16.004c0 6.733-5.458 12.19-12.19 12.19s-12.19-5.458-12.19-12.19c0-6.733 5.458-12.19 12.19-12.19s12.19 5.458 12.19 12.19z">
            </path>
            <path stroke-linejoin="miter" stroke-linecap="butt" stroke-miterlimit="4" stroke-width="0.9219"
                d="M15.238 1.226h30.475c8.162 0 14.778 6.616 14.778 14.778v-0.002c0 8.162-6.616 14.778-14.778 14.778h-30.475c-8.162 0-14.778-6.616-14.778-14.778v0.002c0-8.162 6.616-14.778 14.778-14.778z">
            </path>
        </symbol>
        <symbol id="favourite-icon" viewBox="0 0 36 32">
            <path stroke-linejoin="round" stroke-linecap="round" stroke-miterlimit="4" stroke-width="2"
                d="M31.265 4.918c-1.493-1.494-3.557-2.418-5.836-2.418s-4.343 0.924-5.836 2.418l-1.59 1.59-1.59-1.59c-1.491-1.48-3.545-2.394-5.813-2.394-4.558 0-8.253 3.695-8.253 8.253 0 2.268 0.915 4.322 2.395 5.813l-0-0.001 13.262 13.262 13.262-13.262c1.494-1.493 2.418-3.557 2.418-5.836s-0.924-4.343-2.418-5.836l-0-0z">
            </path>
        </symbol>
        <symbol id="home-icon" viewBox="0 0 32 32">
            <path fill="none" stroke="#f4f4f4" style="stroke: var(--color1, #f4f4f4)" stroke-linejoin="round"
                stroke-linecap="round" stroke-miterlimit="4" stroke-width="1.7778"
                d="M4 12l12-9.333 12 9.333v14.667c0 0.707-0.281 1.386-0.781 1.886s-1.178 0.781-1.886 0.781h-18.667c-0.707 0-1.386-0.281-1.886-0.781s-0.781-1.178-0.781-1.886v-14.667z">
            </path>
            <path fill="none" stroke="#f4f4f4" style="stroke: var(--color1, #f4f4f4)" stroke-linejoin="round"
                stroke-linecap="round" stroke-miterlimit="4" stroke-width="1.7778" d="M12 29.333v-13.333h8v13.333">
            </path>
        </symbol>
        <symbol id="vector" viewBox="0 0 29 32">
            <path
                d="M22.203 10.415c0.292-0.099 0.628-0.156 0.977-0.156 0.516 0 1.003 0.124 1.433 0.345l-0.018-0.008c0.735 0.383 1.29 1.026 1.548 1.805l0.006 0.022 1.937 5.954c0.296 0.868 0.466 1.867 0.466 2.907 0 1.555-0.382 3.020-1.057 4.308l0.024-0.051c-0.579 1.106-1.321 2.044-2.206 2.822l-0.011 0.009c-0.909 0.799-1.989 1.428-3.177 1.825l-0.066 0.019c-1.009 0.349-2.173 0.551-3.383 0.551-0.369 0-0.734-0.019-1.094-0.055l0.045 0.004c-1.594-0.175-3.047-0.629-4.361-1.312l0.068 0.032-9.7-4.936c-0.761-0.398-1.335-1.064-1.605-1.869l-0.007-0.023c-0.101-0.293-0.16-0.631-0.16-0.983 0-0.109 0.006-0.216 0.017-0.322l-0.001 0.013c0.043-0.426 0.159-0.829 0.344-1.211 0.185-0.378 0.44-0.703 0.765-0.968 0.324-0.264 0.7-0.48 1.127-0.64 0.301-0.106 0.648-0.167 1.010-0.167 0.54 0 1.048 0.136 1.492 0.377l-0.017-0.008 2.194 1.103-1.698-5.21c-0.742-0.096-1.416-0.289-2.043-0.569l0.046 0.018c-0.658-0.292-1.224-0.65-1.73-1.077l0.011 0.009c-0.522-0.441-0.977-0.936-1.365-1.481l-0.017-0.024c-0.383-0.534-0.695-1.153-0.903-1.817l-0.012-0.046c-0.23-0.667-0.363-1.436-0.363-2.236 0-0.224 0.010-0.446 0.031-0.665l-0.002 0.028c0.092-1 0.365-1.916 0.785-2.745l-0.020 0.043c0.438-0.867 1.016-1.599 1.712-2.198l0.009-0.008c0.714-0.613 1.558-1.1 2.482-1.411l0.053-0.015c0.667-0.23 1.437-0.363 2.237-0.363 0.225 0 0.447 0.010 0.666 0.031l-0.028-0.002c1 0.092 1.916 0.365 2.745 0.785l-0.043-0.020c0.866 0.437 1.598 1.014 2.196 1.709l0.008 0.009c0.625 0.724 1.099 1.568 1.426 2.537 0.227 0.674 0.357 1.451 0.357 2.258 0 1.295-0.337 2.511-0.928 3.566l0.019-0.037c0.391-0.025 0.768 0.024 1.127 0.148 0.362 0.122 0.701 0.309 1.023 0.558 0.581-0.63 1.41-1.024 2.331-1.024 0.198 0 0.391 0.018 0.579 0.053l-0.020-0.003c0.522 0.093 0.988 0.319 1.403 0.675 0.381-0.409 0.825-0.696 1.332-0.863zM3.070 8.958c0.265 0.802 0.693 1.487 1.25 2.046l-0-0c0.552 0.565 1.232 1.003 1.993 1.268l0.036 0.011-1.293-3.97c-0.099-0.292-0.156-0.628-0.156-0.977 0-0.516 0.124-1.003 0.345-1.433l-0.008 0.018c0.532-1.024 1.584-1.712 2.798-1.712 0.519 0 1.008 0.126 1.439 0.348l-0.018-0.008c0.735 0.382 1.289 1.025 1.548 1.803l0.006 0.022 1.293 3.97c0.447-0.628 0.761-1.382 0.883-2.198l0.003-0.028c0.039-0.237 0.061-0.51 0.061-0.788 0-0.573-0.093-1.123-0.266-1.638l0.011 0.036c-0.435-1.33-1.364-2.396-2.564-3.001l-0.029-0.013c-0.561-0.283-1.214-0.481-1.904-0.554l-0.025-0.002c-0.687-0.072-1.372 0.001-2.054 0.223-0.682 0.223-1.28 0.561-1.796 1.016-0.996 0.874-1.659 2.106-1.787 3.493l-0.002 0.021c-0.064 0.683 0.015 1.366 0.237 2.048zM24.165 13.069c-0.087-0.267-0.274-0.48-0.517-0.598l-0.006-0.003c-0.137-0.075-0.301-0.12-0.475-0.12-0.114 0-0.223 0.019-0.325 0.054l0.007-0.002c-0.352 0.114-0.562 0.292-0.633 0.532-0.070 0.241-0.074 0.511-0.011 0.81 0.064 0.299 0.163 0.622 0.298 0.966 0.135 0.345 0.237 0.661 0.308 0.946 0.070 0.287 0.070 0.561-0.006 0.825-0.074 0.264-0.291 0.444-0.648 0.537-0.383 0.125-0.68 0.089-0.891-0.104-0.213-0.195-0.397-0.477-0.552-0.849-0.147-0.344-0.271-0.748-0.351-1.167l-0.006-0.038c-0.087-0.457-0.211-0.86-0.373-1.244l0.015 0.040c-0.154-0.373-0.331-0.653-0.529-0.839-0.199-0.188-0.502-0.225-0.913-0.116-0.352 0.114-0.562 0.292-0.633 0.532-0.070 0.241-0.074 0.511-0.011 0.81 0.064 0.301 0.163 0.622 0.298 0.967s0.237 0.66 0.308 0.946c0.070 0.285 0.070 0.559-0.006 0.824-0.074 0.264-0.289 0.444-0.648 0.537-0.383 0.125-0.679 0.090-0.891-0.104-0.213-0.195-0.397-0.477-0.551-0.849-0.147-0.344-0.27-0.747-0.351-1.167l-0.006-0.039c-0.087-0.457-0.211-0.86-0.373-1.244l0.015 0.040c-0.156-0.373-0.334-0.653-0.53-0.839-0.199-0.186-0.502-0.225-0.913-0.114-0.351 0.114-0.562 0.292-0.633 0.532-0.070 0.239-0.074 0.509-0.010 0.81 0.063 0.299 0.161 0.621 0.296 0.966s0.238 0.66 0.309 0.946c0.070 0.285 0.068 0.561-0.007 0.825-0.074 0.264-0.289 0.442-0.648 0.537-0.094 0.032-0.203 0.051-0.316 0.051-0.175 0-0.339-0.045-0.482-0.123l0.005 0.003c-0.248-0.121-0.436-0.334-0.52-0.594l-0.002-0.007-3.23-9.923c-0.086-0.267-0.273-0.481-0.516-0.6l-0.006-0.003c-0.137-0.075-0.3-0.119-0.474-0.119-0.114 0-0.224 0.019-0.326 0.054l0.007-0.002c-0.267 0.086-0.481 0.273-0.6 0.515l-0.003 0.006c-0.075 0.137-0.119 0.3-0.119 0.474 0 0.114 0.019 0.224 0.054 0.326l-0.002-0.007 3.971 12.203c0.060 0.169 0.094 0.364 0.094 0.566 0 0.286-0.069 0.556-0.191 0.795l0.005-0.010c-0.1 0.215-0.245 0.393-0.424 0.53l-0.003 0.002c-0.175 0.134-0.374 0.252-0.587 0.345l-0.018 0.007c-0.172 0.059-0.37 0.093-0.575 0.093-0.296 0-0.575-0.070-0.822-0.195l0.010 0.005-2.857-1.455c-0.152-0.083-0.333-0.132-0.526-0.132-0.127 0-0.249 0.021-0.363 0.061l0.008-0.002c-0.297 0.095-0.534 0.303-0.666 0.572l-0.003 0.007c-0.086 0.16-0.136 0.35-0.136 0.552 0 0.125 0.019 0.245 0.055 0.358l-0.002-0.008c0.095 0.296 0.303 0.533 0.571 0.665l0.007 0.003 9.706 4.954c1.015 0.54 2.2 0.914 3.456 1.052l0.044 0.004c0.249 0.025 0.538 0.038 0.83 0.038 0.998 0 1.959-0.163 2.855-0.465l-0.063 0.018c0.975-0.314 1.816-0.799 2.529-1.426l-0.008 0.007c1.386-1.217 2.309-2.932 2.489-4.863l0.002-0.029c0.018-0.194 0.029-0.418 0.029-0.646 0-0.804-0.13-1.577-0.369-2.3l0.015 0.052-1.938-5.956z">
            </path>
        </symbol>
        <symbol id="read-icon" viewBox="0 0 32 32">
            <path
                d="M28.783 6.39c-0.288 0.009-0.546 0.131-0.732 0.323l-16.316 16.316-6.714-6.714c-0.194-0.197-0.463-0.319-0.761-0.319-0.589 0-1.067 0.478-1.067 1.067 0 0.297 0.122 0.566 0.318 0.76l7.468 7.468c0.193 0.193 0.46 0.313 0.755 0.313s0.562-0.12 0.755-0.313v0l17.069-17.069c0.2-0.194 0.323-0.465 0.323-0.765 0-0.589-0.478-1.067-1.067-1.067-0.011 0-0.022 0-0.033 0l0.002-0z">
            </path>
        </symbol>
        <symbol id="menu" viewBox="0 0 32 32">
            <path stroke-linejoin="round" stroke-linecap="round" stroke-miterlimit="4" stroke-width="2.6667"
                d="M4.001 16.006h24.009M4.001 8.003h24.009M4.001 24.009h24.009"></path>
        </symbol>
        <symbol id="close-icon" viewBox="0 0 32 32">
            <path
                d="M7.501 6.727c-0.322 0.196-0.585 0.461-0.772 0.776l-0.006 0.010c-0.069 0.144-0.109 0.312-0.109 0.49 0 0.179 0.041 0.348 0.114 0.5l-0.003-0.007c0.075 0.149 1.313 1.427 3.745 3.864l3.635 3.64-3.635 3.64c-2.432 2.437-3.671 3.715-3.745 3.864-0.235 0.469-0.113 0.977 0.34 1.431s0.961 0.575 1.431 0.34c0.149-0.075 1.427-1.313 3.864-3.745l3.64-3.635 3.64 3.635c2.437 2.432 3.715 3.671 3.864 3.745 0.469 0.235 0.977 0.113 1.431-0.34s0.575-0.961 0.34-1.431c-0.075-0.149-1.313-1.427-3.745-3.864l-3.635-3.64 3.635-3.64c2.432-2.437 3.671-3.715 3.745-3.864 0.235-0.469 0.113-0.977-0.34-1.431s-0.961-0.575-1.431-0.34c-0.149 0.075-1.427 1.313-3.864 3.745l-3.64 3.635-3.64-3.635c-2.437-2.432-3.715-3.671-3.864-3.745-0.145-0.069-0.316-0.109-0.496-0.109-0.181 0-0.353 0.041-0.506 0.114l0.007-0.003z">
            </path>
        </symbol>
        <symbol id="location" viewBox="0 0 24 32">
            <path
                d="M12.164 0.881c-6.557 0.008-11.871 5.321-11.88 11.878v0.001c0 0.005 0 0.012 0 0.018 0 2.685 0.9 5.16 2.414 7.14l-0.021-0.028s0.324 0.426 0.376 0.486l9.11 10.747 9.114-10.749c0.047-0.058 0.372-0.483 0.372-0.483l0.001-0.004c1.494-1.951 2.394-4.425 2.394-7.11 0-0.005 0-0.010 0-0.015v0.001c-0.007-6.559-5.322-11.874-11.88-11.881h-0.001zM12.164 17.080c-2.386 0-4.321-1.934-4.321-4.321s1.934-4.321 4.321-4.321v0c2.386 0 4.32 1.934 4.32 4.32s-1.934 4.32-4.32 4.32v0z">
            </path>
        </symbol>
        <symbol id="search-icon" viewBox="0 0 32 32">
            <path
                d="M13.685 27.369c3.173-0.001 6.091-1.089 8.405-2.911l-0.029 0.022 7.52 7.52 2.419-2.419-7.52-7.518c1.801-2.285 2.888-5.205 2.889-8.38v-0c-0.010-7.553-6.13-13.674-13.682-13.683h-0.001c-7.554 0.009-13.676 6.129-13.685 13.682v0.001c0.009 7.555 6.131 13.677 13.685 13.685h0.001zM13.685 3.422c5.664 0.007 10.254 4.597 10.261 10.261v0.001c-0.006 5.665-4.596 10.256-10.261 10.263h-0.001c-5.665-0.006-10.256-4.596-10.263-10.261v-0.001c0.006-5.665 4.596-10.256 10.261-10.263h0.001z">
            </path>
        </symbol>
        <symbol id="mobile-menu" viewBox="0 0 32 32">
            <path
                d="M3.492 6.741c-0.321 0.1-0.495 0.235-0.655 0.507-0.129 0.22-0.144 0.297-0.144 0.752 0 0.457 0.015 0.531 0.148 0.759 0.1 0.166 0.234 0.3 0.395 0.397l0.005 0.003 0.252 0.148h25.021l0.26-0.16c0.329-0.204 0.507-0.529 0.544-1.001 0.037-0.459-0.088-0.885-0.333-1.129-0.376-0.376 0.605-0.349-13.008-0.345-9.711 0.003-12.316 0.017-12.485 0.071zM3.492 14.741c-0.321 0.1-0.495 0.235-0.655 0.507-0.129 0.22-0.144 0.297-0.144 0.752 0 0.457 0.015 0.531 0.148 0.759 0.1 0.166 0.234 0.3 0.395 0.397l0.005 0.003 0.252 0.148h25.021l0.26-0.16c0.329-0.204 0.507-0.529 0.544-1.001 0.037-0.459-0.088-0.885-0.333-1.129-0.376-0.376 0.605-0.349-13.008-0.345-9.711 0.003-12.316 0.017-12.485 0.071zM3.492 22.741c-0.321 0.1-0.495 0.235-0.655 0.507-0.129 0.22-0.144 0.297-0.144 0.752 0 0.457 0.015 0.531 0.148 0.759 0.1 0.166 0.234 0.3 0.395 0.397l0.005 0.003 0.252 0.148h25.021l0.26-0.16c0.329-0.204 0.507-0.529 0.544-1.001 0.037-0.459-0.088-0.885-0.333-1.129-0.376-0.376 0.605-0.349-13.008-0.345-9.711 0.003-12.316 0.017-12.485 0.071z">
            </path>
        </symbol>
        <symbol id="like" viewBox="0 0 37 32">
            <path stroke-linejoin="round" stroke-linecap="round" stroke-miterlimit="4" stroke-width="2.2857"
                d="M10.666 2.286c-4.207 0-7.619 3.377-7.619 7.543 0 3.363 1.333 11.345 14.458 19.413 0.235 0.143 0.505 0.219 0.78 0.219s0.545-0.076 0.78-0.219c13.125-8.069 14.458-16.050 14.458-19.413 0-4.166-3.412-7.543-7.619-7.543s-7.619 4.571-7.619 4.571-3.412-4.571-7.619-4.571z">
            </path>
        </symbol>
        <symbol id="icon-arrowback" viewBox="0 0 16 32">
            <path
                d="M0 16c0 0.596 0.204 1.107 0.642 1.55l12.192 12.982c0.345 0.375 0.784 0.579 1.301 0.579 1.034 0 1.865-0.886 1.865-2.027 0-0.562-0.219-1.056-0.564-1.448l-10.985-11.636 10.985-11.636c0.345-0.392 0.564-0.903 0.564-1.448 0-1.141-0.831-2.027-1.865-2.027-0.517 0-0.956 0.204-1.301 0.579l-12.192 12.965c-0.439 0.46-0.642 0.971-0.642 1.567z">
            </path>
        </symbol>
        <symbol id="icon-arrownext" viewBox="0 0 16 32">
            <path
                d="M16 16c-0.016-0.596-0.219-1.107-0.643-1.567l-12.192-12.965c-0.36-0.375-0.784-0.579-1.301-0.579-1.050 0-1.865 0.886-1.865 2.027 0 0.545 0.204 1.056 0.564 1.448l10.97 11.636-10.97 11.636c-0.36 0.392-0.564 0.886-0.564 1.448 0 1.142 0.815 2.027 1.865 2.027 0.501 0 0.94-0.204 1.301-0.579l12.192-12.982c0.439-0.443 0.642-0.954 0.642-1.55z">
            </path>
        </symbol>
    </defs>
</svg>